<?xml version="1.0" standalone="no"?><!DOCTYPE svg PUBLIC "-//W3C//DTD SVG 1.1//EN" "http://www.w3.org/Graphics/SVG/1.1/DTD/svg11.dtd"><svg t="1776859625285" class="icon" viewBox="0 0 1024 1024" version="1.1" xmlns="http://www.w3.org/2000/svg" p-id="7660" xmlns:xlink="http://www.w3.org/1999/xlink" width="500" height="500"><path d="M754.15625 666.40625c-40.5-22.359375-67.921875-52.734375-77.625-85.21875-7.59375-24.046875-21.515625-45.5625-39.65625-62.015625-21.9375-18.984375-47.671875-32.0625-75.9375-37.125-16.875-3.796875-34.59375-6.328125-51.890625-6.75-16.875 0.421875-33.75 2.953125-50.203125 6.75-28.265625 5.90625-54 18.5625-75.9375 37.125-18.140625 16.453125-32.484375 37.96875-39.234375 62.4375-9.703125 32.484375-37.546875 62.4375-77.203125 85.21875-19.828125 10.546875-36.703125 25.734375-50.625 43.453125-26.578125 35.859375-33.328125 79.3125-18.140625 119.390625 18.5625 50.203125 68.34375 86.90625 132.046875 98.71875 10.96875 2.109375 21.9375 2.953125 32.90625 2.953125 27 0 54-5.90625 79.3125-16.453125 12.65625-4.21875 49.78125-15.609375 68.765625-15.609375 19.40625 0 56.109375 10.96875 66.65625 14.34375 36.28125 16.03125 75.515625 20.671875 113.90625 14.34375 63.703125-11.390625 113.484375-48.515625 132.046875-98.71875 15.1875-40.078125 8.4375-83.53125-18.140625-119.390625-13.921875-18.140625-31.21875-32.90625-51.046875-43.453125z m23.625 144.28125c-12.65625 33.328125-48.09375 58.640625-95.34375 67.078125-29.953125 4.640625-60.75 0.84375-88.59375-12.234375-5.484375-2.109375-54-17.71875-83.953125-17.71875-29.953125 0-78.890625 16.03125-86.0625 18.984375-27 12.234375-57.375 16.03125-86.90625 10.96875-46.828125-8.015625-82.6875-33.328125-95.34375-67.078125-8.859375-23.625-5.0625-48.9375 11.390625-70.875 9.28125-12.65625 21.515625-22.359375 35.015625-29.53125 51.46875-28.6875 87.328125-69.1875 100.828125-113.90625 5.0625-15.609375 13.921875-29.109375 26.15625-39.65625 15.609375-13.078125 34.171875-21.9375 54-25.734375 13.078125-2.953125 26.15625-4.640625 39.65625-5.90625 13.921875 0.421875 27.84375 2.53125 41.765625 5.90625 19.828125 3.796875 38.390625 12.65625 54 25.734375 12.234375 10.546875 21.09375 24.046875 25.734375 39.65625 13.5 45.140625 49.359375 85.640625 100.828125 113.90625 13.5 7.171875 25.3125 17.296875 34.59375 29.953125 16.875 21.9375 21.09375 46.828125 12.234375 70.453125zM381.21875 420.875c62.015625 0 110.53125-72.5625 110.53125-164.953125S443.65625 91.390625 381.21875 91.390625 271.109375 163.953125 271.109375 256.34375s48.515625 164.53125 110.109375 164.53125z m0-279.28125c29.109375 0 62.015625 46.828125 62.015625 114.328125S410.328125 370.671875 381.21875 370.671875 319.625 323.84375 319.625 256.34375 352.109375 141.59375 381.21875 141.59375zM638.5625 420.875c62.015625 0 110.53125-72.5625 110.53125-164.953125S700.15625 91.390625 638.5625 91.390625s-110.53125 72.5625-110.53125 164.953125 48.09375 164.53125 110.53125 164.53125z m0-279.28125c29.109375 0 62.015625 46.828125 62.015625 114.328125s-32.90625 114.328125-62.015625 114.328125-62.015625-46.828125-62.015625-114.328125S609.03125 141.59375 638.5625 141.59375zM833.46875 330.171875c-55.6875 0-99.984375 64.96875-99.984375 147.234375s43.875 147.234375 99.984375 147.234375S933.875 560.515625 933.875 477.828125s-43.875-147.65625-100.40625-147.65625z m0 244.6875c-24.46875 0-51.046875-40.078125-51.046875-97.03125s27-97.03125 51.046875-97.03125 51.046875 40.078125 51.046875 97.03125-26.578125 97.03125-51.046875 97.03125zM289.671875 490.484375C289.671875 407.796875 246.21875 343.25 189.6875 343.25S90.125 407.796875 90.125 490.484375s43.875 147.234375 99.984375 147.234375 99.5625-64.546875 99.5625-147.234375z m-150.609375 0c0-56.953125 27-97.03125 51.046875-97.03125s51.046875 40.078125 51.046875 97.03125-27 97.03125-51.046875 97.03125-51.046875-39.65625-51.046875-97.03125z" p-id="7661"></path></svg>